<svg width="119" height="39" viewBox="0 0 119 39" fill="none" xmlns="http://www.w3.org/2000/svg">
<g clip-path="url(#clip0_499_5)">
<path d="M115.293 23.8346L118.595 26.0327C117.523 27.609 114.96 30.3133 110.53 30.3133C105.028 30.3133 100.931 26.0617 100.931 20.6531C100.931 14.8975 105.071 10.9929 110.067 10.9929C115.091 10.9929 117.552 14.9843 118.348 17.139L118.783 18.2381L105.839 23.5888C106.823 25.5266 108.358 26.51 110.53 26.51C112.702 26.51 114.208 25.4398 115.293 23.8346ZM105.144 20.3494L113.788 16.763C113.31 15.5627 111.891 14.7095 110.197 14.7095C108.04 14.7095 105.043 16.6184 105.144 20.3494Z" fill="white" fill-opacity="0.6"/>
<path d="M94.6902 1.14471H98.8601V29.4311H94.6902V1.14471Z" fill="white" fill-opacity="0.6"/>
<path d="M88.1168 11.7448H92.1419V28.9249C92.1419 36.0544 87.9286 38.99 82.9479 38.99C78.2568 38.99 75.4335 35.8375 74.3765 33.2778L78.0686 31.7449C78.7346 33.3212 80.3417 35.1867 82.9479 35.1867C86.1477 35.1867 88.1168 33.2055 88.1168 29.5034V28.1151H87.9721C87.0165 29.272 85.1921 30.3132 82.8755 30.3132C78.0396 30.3132 73.6091 26.105 73.6091 20.682C73.6091 15.23 78.0396 10.9784 82.8755 10.9784C85.1777 10.9784 87.0165 12.0051 87.9721 13.1331H88.1168V11.7448ZM88.4064 20.682C88.4064 17.2691 86.1332 14.7817 83.2375 14.7817C80.3128 14.7817 77.8514 17.2691 77.8514 20.682C77.8514 24.0515 80.3128 26.4954 83.2375 26.4954C86.1332 26.5099 88.4064 24.0515 88.4064 20.682Z" fill="white" fill-opacity="0.6"/>
<path d="M50.7182 20.6097C50.7182 26.1773 46.3746 30.2699 41.0464 30.2699C35.7183 30.2699 31.3746 26.1629 31.3746 20.6097C31.3746 15.0132 35.7183 10.9351 41.0464 10.9351C46.3746 10.9351 50.7182 15.0132 50.7182 20.6097ZM46.4904 20.6097C46.4904 17.139 43.9711 14.7529 41.0464 14.7529C38.1217 14.7529 35.6024 17.139 35.6024 20.6097C35.6024 24.0515 38.1217 26.4666 41.0464 26.4666C43.9711 26.4666 46.4904 24.0515 46.4904 20.6097Z" fill="white" fill-opacity="0.6"/>
<path d="M71.8427 20.6531C71.8427 26.2207 67.4991 30.3133 62.1709 30.3133C56.8428 30.3133 52.4991 26.2207 52.4991 20.6531C52.4991 15.0566 56.8428 10.9929 62.1709 10.9929C67.4991 10.9929 71.8427 15.0421 71.8427 20.6531ZM67.6005 20.6531C67.6005 17.1824 65.0812 14.7963 62.1565 14.7963C59.2318 14.7963 56.7125 17.1824 56.7125 20.6531C56.7125 24.0949 59.2318 26.51 62.1565 26.51C65.0957 26.51 67.6005 24.0805 67.6005 20.6531Z" fill="white" fill-opacity="0.6"/>
<path d="M15.477 26.0761C9.41041 26.0761 4.66138 21.1882 4.66138 15.1289C4.66138 9.06955 9.41041 4.18161 15.477 4.18161C18.7492 4.18161 21.1382 5.46867 22.9046 7.11726L25.8148 4.21053C23.3534 1.85333 20.0668 0.0601196 15.477 0.0601196C7.16621 0.0601196 0.172974 6.82804 0.172974 15.1289C0.172974 23.4297 7.16621 30.1976 15.477 30.1976C19.9654 30.1976 23.3534 28.7225 26.0031 25.9749C28.7251 23.2561 29.5648 19.4383 29.5648 16.3436C29.5648 15.3747 29.449 14.3769 29.3187 13.6393H15.477V17.6596H25.337C25.0475 20.1759 24.2511 21.8968 23.0783 23.0681C21.6594 24.4998 19.4152 26.0761 15.477 26.0761Z" fill="white" fill-opacity="0.6"/>
</g>
<defs>
<clipPath id="clip0_499_5">
<rect width="119" height="39" fill="white"/>
</clipPath>
</defs>
</svg>
